<?xml version="1.0" standalone="no"?>
<!DOCTYPE svg PUBLIC "-//W3C//DTD SVG 20010904//EN"
 "http://www.w3.org/TR/2001/REC-SVG-20010904/DTD/svg10.dtd">
<svg version="1.0" xmlns="http://www.w3.org/2000/svg"
 width="512.000000pt" height="512.000000pt" viewBox="0 0 512.000000 512.000000"
 preserveAspectRatio="xMidYMid meet">
<metadata>
Created by potrace 1.11, written by Peter Selinger 2001-2013
</metadata>
<g transform="translate(0.000000,512.000000) scale(0.100000,-0.100000)"
fill="#000000" stroke="none">
<path d="M2026 4470 c-16 -5 -40 -19 -54 -32 -52 -49 -52 -44 -53 -660 l0
-573 -202 403 c-132 263 -207 402 -217 402 -8 0 -35 -11 -59 -25 -23 -14 -47
-25 -52 -25 -27 0 -284 -167 -384 -250 -72 -59 -235 -232 -289 -305 -99 -133
-106 -143 -106 -150 0 -4 -8 -19 -19 -33 -68 -97 -185 -380 -217 -527 -2 -11
-6 -30 -9 -42 -3 -13 -7 -31 -9 -40 -4 -19 -15 -86 -23 -138 -3 -16 -7 -220
-10 -453 l-5 -422 2242 0 2242 0 -5 423 c-2 232 -7 436 -10 452 -3 17 -10 60
-16 97 -59 363 -248 732 -515 1003 -169 171 -316 279 -524 383 l-122 62 -205
-408 -204 -407 0 573 c-1 314 -1 574 -1 577 1 18 -36 68 -67 92 l-36 28 -521
2 c-287 1 -534 -2 -550 -7z m763 -1579 c235 -61 393 -156 570 -344 l33 -35
-28 -49 c-44 -75 -197 -221 -287 -272 -189 -107 -330 -141 -567 -136 -85 2
-171 6 -190 10 -133 22 -254 57 -353 102 -71 32 -194 99 -207 113 -3 3 -16 13
-30 21 -14 9 -49 38 -77 64 -48 42 -52 49 -39 66 29 42 158 169 236 233 42 34
184 123 245 154 76 38 215 82 280 89 28 3 52 7 54 9 3 3 66 3 140 0 95 -3 161
-10 220 -25z"/>
<path d="M94 1266 c-17 -8 -44 -31 -60 -52 l-29 -37 0 -218 c0 -239 1 -243 69
-293 l27 -21 2445 -3 c2701 -2 2486 -8 2540 64 l29 37 0 218 c0 239 -1 243
-69 293 l-27 21 -2447 2 c-2047 2 -2452 0 -2478 -11z"/>
</g>
</svg>
